<svg viewBox="0 0 1024 1024" xmlns="http://www.w3.org/2000/svg"><path d="M352 159.2c-12.8 0-23.2 10.4-23.2 23.2v256c0 12.8 10.4 23.2 23.2 23.2h320c12.8 0 23.2-10.4 23.2-23.2v-256c0-12.8-10.4-23.2-23.2-23.2H352z M512 32c13.2 0 24 10.8 24 24v416c0 13.2-10.8 24-24 24s-24-10.8-24-24V56c0-13.2 10.8-24 24-24zM512 992C264.6 992 64 791.4 64 544c0-116.6 44.6-222.4 117.6-300.8 8.8-9.4 23.6-10 33-1.2 9.4 8.8 10 23.6 1.2 33C152.6 345.6 112 440.6 112 544c0 220.8 179.2 400 400 400s400-179.2 400-400c0-103.4-40.6-198.4-103.8-269-8.8-9.4-8.2-24.2 1.2-33 9.4-8.8 24.2-8.2 33 1.2C915.4 321.6 960 427.4 960 544c0 247.4-200.6 448-448 448z"/></svg>