<svg viewBox="0 0 1024 1024" xmlns="http://www.w3.org/2000/svg"><path d="M512 320c-106 0-192 86-192 192s86 192 192 192 192-86 192-192-86-192-192-192z m0 320c-70.7 0-128-57.3-128-128s57.3-128 128-128 128 57.3 128 128-57.3 128-128 128zM512 64c17.7 0 32 14.3 32 32v128c0 17.7-14.3 32-32 32s-32-14.3-32-32V96c0-17.7 14.3-32 32-32z m0 736c17.7 0 32 14.3 32 32v128c0 17.7-14.3 32-32 32s-32-14.3-32-32V832c0-17.7 14.3-32 32-32zM192 512c0-17.7-14.3-32-32-32H32c-17.7 0-32 14.3-32 32s14.3 32 32 32h128c17.7 0 32-14.3 32-32z m800 0c0-17.7-14.3-32-32-32h-128c-17.7 0-32 14.3-32 32s14.3 32 32 32h128c17.7 0 32-14.3 32-32zM226.3 226.3c12.5 12.5 12.5 32.8 0 45.3s-32.8 12.5-45.3 0l-90.5-90.5c-12.5-12.5-12.5-32.8 0-45.3s32.8-12.5 45.3 0l90.5 90.5z m571.4 571.4c12.5 12.5 12.5 32.8 0 45.3s-32.8 12.5-45.3 0l-90.5-90.5c-12.5-12.5-12.5-32.8 0-45.3s32.8-12.5 45.3 0l90.5 90.5zM226.3 797.7c-12.5 12.5-32.8 12.5-45.3 0s-12.5-32.8 0-45.3l90.5-90.5c12.5-12.5 32.8-12.5 45.3 0s12.5 32.8 0 45.3l-90.5 90.5z m571.4-571.4c-12.5 12.5-32.8 12.5-45.3 0s-12.5-32.8 0-45.3l90.5-90.5c12.5-12.5 32.8-12.5 45.3 0s12.5 32.8 0 45.3l-90.5 90.5z"/></svg>