<svg viewBox="0 0 1024 1024" xmlns="http://www.w3.org/2000/svg"><path d="M688 128H192c-17.7 0-32 14.3-32 32s14.3 32 32 32h496c70.7 0 128 57.3 128 128s-57.3 128-128 128H160c-17.7 0-32 14.3-32 32s14.3 32 32 32h528c106 0 192-86 192-192s-86-192-192-192z m-368 512H192c-17.7 0-32 14.3-32 32s14.3 32 32 32h128c70.7 0 128 57.3 128 128s-57.3 128-128 128H192c-17.7 0-32 14.3-32 32s14.3 32 32 32h128c106 0 192-86 192-192s-86-192-192-192z m416-192H384c-17.7 0-32 14.3-32 32s14.3 32 32 32h352c70.7 0 128 57.3 128 128s-57.3 128-128 128h-96c-17.7 0-32 14.3-32 32s14.3 32 32 32h96c106 0 192-86 192-192s-86-192-192-192z"/></svg>