<svg width="40" height="40" viewBox="0 0 40 40" fill="none" xmlns="http://www.w3.org/2000/svg">
<circle cx="20" cy="20" r="18" fill="#07C160"/>
<path d="M12 16C12 13.7909 13.7909 12 16 12H24C26.2091 12 28 13.7909 28 16V24C28 26.2091 26.2091 28 24 28H16C13.7909 28 12 26.2091 12 24V16Z" fill="white"/>
<circle cx="18" cy="18" r="2" fill="#07C160"/>
<circle cx="22" cy="18" r="2" fill="#07C160"/>
<path d="M16 22C16 20.8954 16.8954 20 18 20H22C23.1046 20 24 20.8954 24 22V24C24 25.1046 23.1046 26 22 26H18C16.8954 26 16 25.1046 16 24V22Z" fill="#07C160"/>
</svg>








