<?xml version="1.0" standalone="no"?><!DOCTYPE svg PUBLIC "-//W3C//DTD SVG 1.1//EN" "http://www.w3.org/Graphics/SVG/1.1/DTD/svg11.dtd"><svg t="1765971033312" class="icon" viewBox="0 0 1024 1024" version="1.1" xmlns="http://www.w3.org/2000/svg" p-id="6282" xmlns:xlink="http://www.w3.org/1999/xlink" width="200" height="200"><path d="M512 0q198.016 0 331.989333 137.984l-59.989333 59.989333q-112-112-272-112t-272 112l-59.989333-59.989333q137.984-137.984 331.989333-137.984zM299.989333 258.005333q88.021333-88.021333 212.010667-88.021333t212.010667 88.021333l-59.989333 59.989333q-61.994667-61.994667-152.021333-61.994667t-152.021333 61.994667zM512 640q34.005333 0 59.989333-25.984t25.984-59.989333-25.984-59.008-59.989333-25.002667-59.989333 25.002667-25.984 59.008 25.984 59.989333 59.989333 25.984zM640 384q18.005333 0 29.994667 11.989333t11.989333 29.994667l0 512q0 18.005333-11.989333 31.018667t-29.994667 13.013333l-256 0q-18.005333 0-29.994667-13.013333t-11.989333-31.018667l0-512q0-18.005333 11.989333-29.994667t29.994667-11.989333l256 0z" fill="#444444" p-id="6283"></path></svg>